<svg version="1.1" preserveAspectRatio="none" xmlns="http://www.w3.org/2000/svg" width="500" height="500" viewBox="0 0 500 500"><rect width="100%" height="100%" fill="#005F40" fill-opacity="1"/><svg viewBox="72.7164 137.4359 357.766 263.1064" width="333" height="244.89311784797886" x="83.5px" y="127.5534px" xmlns="http://www.w3.org/2000/svg" xmlns:xlink="http://www.w3.org/1999/xlink" preserveAspectRatio="none"><defs></defs><style>.companyName {fill:#EDEDED;fill-opacity:1;}.icon1 {fill:#EDEDED;fill-opacity:1;}.icon2 {fill:#163D26;fill-opacity:1;}.icon3 {fill:#9C9C9C;fill-opacity:1;}.icon3-str {stroke:#9C9C9C;stroke-opacity:1;}</style><g opacity="1" transform="rotate(0 72.7164 320.5423)">
<svg width="357.766" height="80" x="72.7164" y="320.5423" version="1.1" preserveAspectRatio="none" viewBox="2.08 -32.4 178.88 40">
  <g transform="matrix(1 0 0 1 0 0)" class="companyName"><path id="id-D6z1nYkh10" d="M2.08 0L2.08-32.40L8.08-32.40L8.08-14.16L13.88-23.12L20.60-23.12L14.60-13.72L20.52 0L14 0L9.88-11.20L8.08-8.80L8.08 0L2.08 0Z M22.76 7.60L22.76-23.12L28.76-23.12L28.76-21.40Q31.08-23.52 33.68-23.52L33.68-23.52Q36.28-23.48 37.48-21.40Q38.68-19.32 38.68-16.28L38.68-16.28L38.68-7.24Q38.68-3.80 37.36-1.70Q36.04 0.40 33.48 0.40L33.48 0.40Q31.20 0.40 28.76-1.76L28.76-1.76L28.76 7.60L22.76 7.60ZM30.80-3.64Q32.64-3.64 32.64-7L32.64-7L32.64-16.68Q32.64-19.72 30.84-19.72L30.84-19.72Q29.88-19.72 28.76-18.84L28.76-18.84L28.76-4.32Q29.84-3.64 30.80-3.64L30.80-3.64Z M52.44 0L52.44-23.12L58.32-23.12L58.32-21.20Q60.64-23.56 63.76-23.56L63.76-23.56Q65.12-23.56 66.14-22.86Q67.16-22.16 67.68-20.76L67.68-20.76Q70.16-23.56 73.56-23.56L73.56-23.56Q75.56-23.56 76.74-22.10Q77.92-20.64 77.92-18L77.92-18L77.92 0L72.08 0L72.08-17.40Q72.08-18.52 71.70-18.98Q71.32-19.44 70.56-19.44L70.56-19.44Q70.04-19.44 69.38-19.16Q68.72-18.88 68.12-18.36L68.12-18.36L68.12-18L68.12 0L62.28 0L62.28-17.40Q62.28-18.52 61.90-18.98Q61.52-19.44 60.76-19.44L60.76-19.44Q60.24-19.44 59.58-19.16Q58.92-18.88 58.32-18.36L58.32-18.36L58.32 0L52.44 0Z M85.80 0.40Q83.80 0.40 82.74-1.08Q81.68-2.56 81.68-4.88L81.68-4.88L81.68-23.12L87.72-23.12L87.72-5.72Q87.72-4.76 88.06-4.28Q88.40-3.80 89.20-3.80L89.20-3.80Q90.04-3.80 91.32-4.68L91.32-4.68L91.32-23.12L97.36-23.12L97.36 0L91.32 0L91.32-2.16Q88.56 0.40 85.80 0.40L85.80 0.40Z M108.24 0.40Q105.24 0.40 103.28-1.06Q101.32-2.52 100.28-5.56L100.28-5.56L104.52-7.32Q105.72-3.76 107.92-3.76L107.92-3.76Q108.76-3.76 109.18-4.14Q109.60-4.52 109.60-5.20L109.60-5.20Q109.60-6.12 109.02-6.84Q108.44-7.56 106.72-9.04L106.72-9.04L104.56-10.88Q102.64-12.52 101.72-13.92Q100.80-15.32 100.80-17.28L100.80-17.28Q100.80-19.12 101.72-20.54Q102.64-21.96 104.22-22.74Q105.80-23.52 107.68-23.52L107.68-23.52Q110.48-23.52 112.30-21.94Q114.12-20.36 114.80-17.52L114.80-17.52L110.88-15.76Q110.52-17.20 109.72-18.22Q108.92-19.24 107.84-19.24L107.84-19.24Q107.12-19.24 106.68-18.82Q106.24-18.40 106.24-17.72L106.24-17.72Q106.24-17.04 106.92-16.26Q107.60-15.48 109.04-14.24L109.04-14.24L111.20-12.32Q113.08-10.72 114.14-9.24Q115.20-7.76 115.20-5.80L115.20-5.80Q115.20-3.88 114.26-2.48Q113.32-1.08 111.72-0.34Q110.12 0.40 108.24 0.40L108.24 0.40Z M118.08-26.92L118.08-31.44L124.16-31.44L124.16-26.92L118.08-26.92ZM118.12 0L118.12-23.12L124.16-23.12L124.16 0L118.12 0Z M135.60 0.40Q131.80 0.40 129.84-1.72Q127.88-3.84 127.88-7.68L127.88-7.68L127.88-15.48Q127.88-19.36 129.84-21.44Q131.80-23.52 135.60-23.52L135.60-23.52Q139.32-23.52 141.22-21.76Q143.12-20 143.12-16.48L143.12-16.48L143.12-14.28L137.32-14.28L137.32-16.64Q137.32-18.16 136.92-18.74Q136.52-19.32 135.64-19.32L135.64-19.32Q134.68-19.32 134.30-18.60Q133.92-17.88 133.92-16.08L133.92-16.08L133.92-6.96Q133.92-5.16 134.34-4.48Q134.76-3.80 135.64-3.80L135.64-3.80Q136.56-3.80 136.94-4.44Q137.32-5.08 137.32-6.48L137.32-6.48L137.32-9.28L143.12-9.28L143.12-6.72Q143.12-3.24 141.20-1.42Q139.28 0.40 135.60 0.40L135.60 0.40Z M151.24 0.40Q149.64 0.40 148.44-0.40Q147.24-1.20 146.62-2.50Q146-3.80 146-5.20L146-5.20Q146-7.88 147.32-9.60Q148.64-11.32 150.50-12.28Q152.36-13.24 155.44-14.36L155.44-14.36L155.44-16.52Q155.44-17.76 155.10-18.40Q154.76-19.04 153.88-19.04L153.88-19.04Q153-19.04 152.64-18.48Q152.28-17.92 152.20-16.88L152.20-16.88L152.08-15.28L146.40-15.52Q146.56-19.64 148.52-21.58Q150.48-23.52 154.40-23.52L154.40-23.52Q157.80-23.52 159.52-21.64Q161.24-19.76 161.24-16.48L161.24-16.48L161.24-5.72Q161.24-3 161.64 0L161.64 0L156.24 0Q156.08-1.16 155.72-3.32L155.72-3.32Q155.24-1.72 154.10-0.66Q152.96 0.40 151.24 0.40L151.24 0.40ZM153.40-3.88Q154-3.88 154.54-4.28Q155.08-4.68 155.44-5.20L155.44-5.20L155.44-11.56Q153.56-10.48 152.56-9.32Q151.56-8.16 151.56-6.48L151.56-6.48Q151.56-5.24 152.04-4.56Q152.52-3.88 153.40-3.88L153.40-3.88Z M165.24 0L165.24-23.12L171.24-23.12L171.24-20.80Q174.04-23.52 176.84-23.52L176.84-23.52Q178.84-23.52 179.90-22.04Q180.96-20.56 180.96-18.24L180.96-18.24L180.96 0L174.92 0L174.92-17.28Q174.92-18.24 174.60-18.70Q174.28-19.16 173.52-19.16L173.52-19.16Q172.60-19.16 171.24-18.20L171.24-18.20L171.24 0L165.24 0Z"/></g>
</svg>
</g><g opacity="1" transform="rotate(0 180.0462 137.4359)">
<svg width="143.1064" height="143.1064" x="180.0462" y="137.4359" version="1.1" preserveAspectRatio="none" viewBox="0 0 90 90">
  <g transform="matrix(1 0 0 1 0 0)" class="icon1"><path d="M84.116,22.741L61.321,35.713c-0.197-0.346-0.405-0.69-0.625-1.018l21.922-14.394c-0.82-1.246-1.7-2.448-2.635-3.604  L59.596,33.191c-0.188-0.233-0.381-0.46-0.58-0.683l-0.01-0.009l-0.013-0.017l-0.008-0.009l-0.015-0.014l-0.008-0.011l-0.013-0.014  l-0.009-0.011l-0.013-0.015l-0.008-0.009l-0.015-0.015l-0.008-0.009l-0.013-0.015l-0.01-0.011l-0.014-0.014l-0.008-0.009  l-0.014-0.015L58.827,32.3l-0.015-0.015l-0.008-0.009l-0.014-0.015L58.78,32.25l-0.013-0.015l-0.008-0.011l-0.015-0.014L58.735,32.2  l-0.014-0.015l-0.009-0.01l-0.014-0.014l-0.008-0.011l-0.014-0.014l-0.01-0.011l-0.014-0.014l-0.008-0.01l-0.014-0.015l-0.009-0.009  l-0.014-0.014l-0.008-0.011l-0.015-0.014l-0.008-0.009l-0.014-0.015l-0.009-0.008l-0.014-0.017l-0.008-0.008l-0.015-0.014  l-0.008-0.011l-0.015-0.014l-0.01-0.011l-0.013-0.014l-0.011-0.008l-0.013-0.016l-0.009-0.008l-0.015-0.014l-0.008-0.009  l-0.014-0.015l-0.009-0.008l-0.014-0.017l-0.009-0.008l-0.014-0.015l-0.009-0.008l-0.015-0.015l-0.008-0.009L58.3,31.749  l-0.011-0.008l-0.014-0.015l-0.008-0.008l-0.015-0.016l-0.009-0.008l-0.014-0.014l-0.009-0.009l-0.038-0.039l-0.01-0.008  l-0.015-0.015l-0.01-0.008c-0.213-0.21-0.432-0.411-0.654-0.613l17.448-19.576C66.987,4.313,56.499,0,45.001,0  C20.147,0,0,20.147,0,45.001C0,53.1,2.139,60.698,5.884,67.263l22.797-12.974c0.197,0.342,0.406,0.685,0.625,1.018L7.383,69.702  c0.82,1.245,1.7,2.448,2.635,3.604L30.406,56.81c0.187,0.231,0.38,0.459,0.579,0.683l0.009,0.011l0.013,0.014l0.008,0.011  l0.015,0.014l0.008,0.012l0.013,0.013l0.01,0.011l0.013,0.015l0.032,0.035l0.014,0.014l0.008,0.011l0.014,0.014l0.009,0.011  l0.013,0.014l0.032,0.035l0.014,0.014l0.009,0.011l0.013,0.014l0.008,0.01l0.015,0.015l0.054,0.06l0.014,0.013l0.009,0.012  l0.014,0.013l0.092,0.098l0.009,0.009l0.014,0.015l0.008,0.009l0.015,0.014l0.008,0.011l0.015,0.014l0.009,0.011l0.013,0.013  l0.011,0.011l0.013,0.014l0.01,0.009l0.015,0.014l0.008,0.011l0.038,0.038l0.011,0.009l0.013,0.014l0.009,0.011l0.015,0.013  l0.008,0.011l0.014,0.014l0.011,0.009l0.013,0.014l0.009,0.01l0.015,0.014l0.009,0.011l0.014,0.013l0.009,0.011l0.014,0.013  l0.011,0.01l0.013,0.015l0.009,0.01l0.015,0.014l0.01,0.01c0.217,0.209,0.437,0.414,0.654,0.612L15.061,78.593  C23.016,85.688,33.503,90,45.001,90C69.854,90,90,69.855,90,45.001C90,36.902,87.86,29.305,84.116,22.741z M45.001,58.847  c-7.648,0-13.846-6.198-13.846-13.846c0-7.648,6.198-13.846,13.846-13.846c7.645,0,13.846,6.198,13.846,13.846  C58.847,52.649,52.646,58.847,45.001,58.847z"></path><path d="M45.001,42.875c1.174,0,2.126,0.952,2.126,2.126c0,1.174-0.952,2.126-2.126,2.126c-1.174,0-2.126-0.952-2.126-2.126  C42.875,43.827,43.827,42.875,45.001,42.875z"></path></g>
</svg>
</g></svg></svg>